<mxfile host="app.diagrams.net" modified="2023-04-16T11:13:17.507Z" agent="Mozilla/5.0 (Windows NT 10.0; Win64; x64) AppleWebKit/537.36 (KHTML, like Gecko) Chrome/112.0.0.0 Safari/537.36" etag="KUC6XLEzUBH9hFhW9CfL" version="21.1.4" type="device">
  <diagram id="C5RBs43oDa-KdzZeNtuy" name="Page-1">
    <mxGraphModel dx="989" dy="553" grid="1" gridSize="10" guides="1" tooltips="1" connect="1" arrows="1" fold="1" page="1" pageScale="1" pageWidth="827" pageHeight="1169" background="none" math="0" shadow="0">
      <root>
        <mxCell id="WIyWlLk6GJQsqaUBKTNV-0" />
        <mxCell id="WIyWlLk6GJQsqaUBKTNV-1" parent="WIyWlLk6GJQsqaUBKTNV-0" />
        <mxCell id="_6LwRVh_wQ2znvyvovlK-70" value="" style="rounded=1;whiteSpace=wrap;html=1;absoluteArcSize=1;arcSize=0;strokeWidth=2;strokeColor=none;fillColor=#d5e8d4;" parent="WIyWlLk6GJQsqaUBKTNV-1" vertex="1">
          <mxGeometry x="10" y="560" width="810" height="150" as="geometry" />
        </mxCell>
        <mxCell id="_6LwRVh_wQ2znvyvovlK-71" value="Output data" style="rounded=1;whiteSpace=wrap;html=1;absoluteArcSize=1;arcSize=14;strokeWidth=2;fillColor=none;strokeColor=none;" parent="WIyWlLk6GJQsqaUBKTNV-1" vertex="1">
          <mxGeometry x="20" y="585" width="80" height="100" as="geometry" />
        </mxCell>
        <mxCell id="_6LwRVh_wQ2znvyvovlK-68" value="" style="rounded=1;whiteSpace=wrap;html=1;absoluteArcSize=1;arcSize=0;strokeWidth=2;strokeColor=none;fillColor=#f5f5f5;fontColor=#333333;" parent="WIyWlLk6GJQsqaUBKTNV-1" vertex="1">
          <mxGeometry x="9" y="118.75" width="810" height="441.25" as="geometry" />
        </mxCell>
        <mxCell id="_6LwRVh_wQ2znvyvovlK-69" value="Data processing steps" style="rounded=1;whiteSpace=wrap;html=1;absoluteArcSize=1;arcSize=14;strokeWidth=2;fillColor=none;strokeColor=none;" parent="WIyWlLk6GJQsqaUBKTNV-1" vertex="1">
          <mxGeometry x="20" y="289.38" width="80" height="100" as="geometry" />
        </mxCell>
        <mxCell id="_6LwRVh_wQ2znvyvovlK-66" value="" style="rounded=1;whiteSpace=wrap;html=1;absoluteArcSize=1;arcSize=0;strokeWidth=2;strokeColor=none;fillColor=#dae8fc;" parent="WIyWlLk6GJQsqaUBKTNV-1" vertex="1">
          <mxGeometry x="10" y="10" width="810" height="110" as="geometry" />
        </mxCell>
        <mxCell id="_6LwRVh_wQ2znvyvovlK-57" value="" style="edgeStyle=orthogonalEdgeStyle;rounded=0;orthogonalLoop=1;jettySize=auto;html=1;" parent="WIyWlLk6GJQsqaUBKTNV-1" source="_6LwRVh_wQ2znvyvovlK-0" target="_6LwRVh_wQ2znvyvovlK-55" edge="1">
          <mxGeometry relative="1" as="geometry" />
        </mxCell>
        <mxCell id="_6LwRVh_wQ2znvyvovlK-0" value="&lt;br&gt;Pointclouds tiles&lt;br&gt;(LAZ)" style="strokeWidth=2;html=1;shape=mxgraph.flowchart.database;whiteSpace=wrap;fillColor=#b1ddf0;strokeColor=#10739e;" parent="WIyWlLk6GJQsqaUBKTNV-1" vertex="1">
          <mxGeometry x="650" y="20" width="100" height="90" as="geometry" />
        </mxCell>
        <mxCell id="_6LwRVh_wQ2znvyvovlK-5" value="" style="edgeStyle=orthogonalEdgeStyle;rounded=0;orthogonalLoop=1;jettySize=auto;html=1;" parent="WIyWlLk6GJQsqaUBKTNV-1" source="_6LwRVh_wQ2znvyvovlK-2" target="_6LwRVh_wQ2znvyvovlK-4" edge="1">
          <mxGeometry relative="1" as="geometry" />
        </mxCell>
        <mxCell id="_6LwRVh_wQ2znvyvovlK-2" value="&lt;br&gt;Image tiles&lt;br&gt;metadata&lt;br&gt;(CSV)" style="strokeWidth=2;html=1;shape=mxgraph.flowchart.database;whiteSpace=wrap;fillColor=#b1ddf0;strokeColor=#10739e;" parent="WIyWlLk6GJQsqaUBKTNV-1" vertex="1">
          <mxGeometry x="122.12" y="20" width="100" height="90" as="geometry" />
        </mxCell>
        <mxCell id="_6LwRVh_wQ2znvyvovlK-17" value="" style="edgeStyle=orthogonalEdgeStyle;rounded=0;orthogonalLoop=1;jettySize=auto;html=1;entryX=0.25;entryY=0;entryDx=0;entryDy=0;" parent="WIyWlLk6GJQsqaUBKTNV-1" source="_6LwRVh_wQ2znvyvovlK-3" target="_6LwRVh_wQ2znvyvovlK-15" edge="1">
          <mxGeometry relative="1" as="geometry">
            <Array as="points">
              <mxPoint x="300" y="120" />
              <mxPoint x="331" y="120" />
            </Array>
          </mxGeometry>
        </mxCell>
        <mxCell id="_6LwRVh_wQ2znvyvovlK-3" value="&lt;font style=&quot;font-size: 11px;&quot;&gt;&lt;br&gt;Publicly available building information&lt;br&gt;(XML/GML)&lt;/font&gt;" style="strokeWidth=2;html=1;shape=mxgraph.flowchart.database;whiteSpace=wrap;fillColor=#b1ddf0;strokeColor=#10739e;" parent="WIyWlLk6GJQsqaUBKTNV-1" vertex="1">
          <mxGeometry x="250" y="20" width="100" height="90" as="geometry" />
        </mxCell>
        <mxCell id="_6LwRVh_wQ2znvyvovlK-12" value="" style="edgeStyle=orthogonalEdgeStyle;rounded=0;orthogonalLoop=1;jettySize=auto;html=1;" parent="WIyWlLk6GJQsqaUBKTNV-1" source="_6LwRVh_wQ2znvyvovlK-4" target="_6LwRVh_wQ2znvyvovlK-10" edge="1">
          <mxGeometry relative="1" as="geometry" />
        </mxCell>
        <mxCell id="_6LwRVh_wQ2znvyvovlK-4" value="Get info on all available image tiles" style="rounded=1;whiteSpace=wrap;html=1;absoluteArcSize=1;arcSize=14;strokeWidth=2;fillColor=#eeeeee;strokeColor=#36393d;" parent="WIyWlLk6GJQsqaUBKTNV-1" vertex="1">
          <mxGeometry x="122.12" y="138.75" width="100" height="65" as="geometry" />
        </mxCell>
        <mxCell id="_6LwRVh_wQ2znvyvovlK-38" value="" style="edgeStyle=orthogonalEdgeStyle;rounded=0;orthogonalLoop=1;jettySize=auto;html=1;" parent="WIyWlLk6GJQsqaUBKTNV-1" source="_6LwRVh_wQ2znvyvovlK-7" target="_6LwRVh_wQ2znvyvovlK-34" edge="1">
          <mxGeometry relative="1" as="geometry" />
        </mxCell>
        <mxCell id="_6LwRVh_wQ2znvyvovlK-7" value="&lt;br&gt;Image tiles&lt;br&gt;(JP2000)" style="strokeWidth=2;html=1;shape=mxgraph.flowchart.database;whiteSpace=wrap;fillColor=#b1ddf0;strokeColor=#10739e;" parent="WIyWlLk6GJQsqaUBKTNV-1" vertex="1">
          <mxGeometry x="498" y="20" width="100" height="90" as="geometry" />
        </mxCell>
        <mxCell id="_6LwRVh_wQ2znvyvovlK-14" value="apply" style="edgeStyle=orthogonalEdgeStyle;rounded=0;orthogonalLoop=1;jettySize=auto;html=1;" parent="WIyWlLk6GJQsqaUBKTNV-1" source="_6LwRVh_wQ2znvyvovlK-10" target="_6LwRVh_wQ2znvyvovlK-13" edge="1">
          <mxGeometry x="0.0136" relative="1" as="geometry">
            <mxPoint as="offset" />
          </mxGeometry>
        </mxCell>
        <mxCell id="_6LwRVh_wQ2znvyvovlK-10" value="Choose tiles &lt;br&gt;to process" style="strokeWidth=2;html=1;shape=mxgraph.flowchart.decision;whiteSpace=wrap;fillColor=#fff2cc;strokeColor=#d6b656;" parent="WIyWlLk6GJQsqaUBKTNV-1" vertex="1">
          <mxGeometry x="126.06" y="228.75" width="92.12" height="80" as="geometry" />
        </mxCell>
        <mxCell id="_6LwRVh_wQ2znvyvovlK-36" style="edgeStyle=orthogonalEdgeStyle;rounded=0;orthogonalLoop=1;jettySize=auto;html=1;entryX=0;entryY=0.5;entryDx=0;entryDy=0;" parent="WIyWlLk6GJQsqaUBKTNV-1" source="_6LwRVh_wQ2znvyvovlK-13" target="_6LwRVh_wQ2znvyvovlK-15" edge="1">
          <mxGeometry relative="1" as="geometry" />
        </mxCell>
        <mxCell id="_6LwRVh_wQ2znvyvovlK-13" value="Dataframe of&lt;br&gt;tiles to be processed" style="shape=internalStorage;whiteSpace=wrap;html=1;dx=11;dy=10;rounded=1;arcSize=8;strokeWidth=2;fillColor=#e1d5e7;strokeColor=#9673a6;" parent="WIyWlLk6GJQsqaUBKTNV-1" vertex="1">
          <mxGeometry x="119" y="360" width="106.25" height="80" as="geometry" />
        </mxCell>
        <mxCell id="_6LwRVh_wQ2znvyvovlK-26" value="" style="edgeStyle=orthogonalEdgeStyle;rounded=0;orthogonalLoop=1;jettySize=auto;html=1;" parent="WIyWlLk6GJQsqaUBKTNV-1" source="_6LwRVh_wQ2znvyvovlK-15" target="_6LwRVh_wQ2znvyvovlK-25" edge="1">
          <mxGeometry relative="1" as="geometry" />
        </mxCell>
        <mxCell id="_6LwRVh_wQ2znvyvovlK-15" value="Get info on all buildings in selected tiles" style="rounded=1;whiteSpace=wrap;html=1;absoluteArcSize=1;arcSize=14;strokeWidth=2;fillColor=#eeeeee;strokeColor=#36393d;" parent="WIyWlLk6GJQsqaUBKTNV-1" vertex="1">
          <mxGeometry x="305.78000000000003" y="138.75" width="100" height="65" as="geometry" />
        </mxCell>
        <mxCell id="_6LwRVh_wQ2znvyvovlK-37" value="" style="edgeStyle=orthogonalEdgeStyle;rounded=0;orthogonalLoop=1;jettySize=auto;html=1;" parent="WIyWlLk6GJQsqaUBKTNV-1" source="_6LwRVh_wQ2znvyvovlK-25" target="_6LwRVh_wQ2znvyvovlK-19" edge="1">
          <mxGeometry relative="1" as="geometry" />
        </mxCell>
        <mxCell id="_6LwRVh_wQ2znvyvovlK-25" value="Dataframe of&lt;br&gt;all available &lt;br&gt;buildings" style="shape=internalStorage;whiteSpace=wrap;html=1;dx=11;dy=11;rounded=1;arcSize=8;strokeWidth=2;fillColor=#e1d5e7;strokeColor=#9673a6;" parent="WIyWlLk6GJQsqaUBKTNV-1" vertex="1">
          <mxGeometry x="304.21000000000004" y="228.75" width="101.57" height="80" as="geometry" />
        </mxCell>
        <mxCell id="_6LwRVh_wQ2znvyvovlK-40" style="edgeStyle=orthogonalEdgeStyle;rounded=0;orthogonalLoop=1;jettySize=auto;html=1;exitX=1;exitY=0.5;exitDx=0;exitDy=0;entryX=0;entryY=0.5;entryDx=0;entryDy=0;" parent="WIyWlLk6GJQsqaUBKTNV-1" source="_6LwRVh_wQ2znvyvovlK-32" target="_6LwRVh_wQ2znvyvovlK-34" edge="1">
          <mxGeometry relative="1" as="geometry">
            <Array as="points">
              <mxPoint x="430" y="510" />
              <mxPoint x="430" y="173" />
            </Array>
          </mxGeometry>
        </mxCell>
        <mxCell id="_6LwRVh_wQ2znvyvovlK-32" value="Dataframe of&lt;br style=&quot;border-color: var(--border-color);&quot;&gt;buildings to be processed" style="shape=internalStorage;whiteSpace=wrap;html=1;dx=12;dy=10;rounded=1;arcSize=8;strokeWidth=2;fillColor=#e1d5e7;strokeColor=#9673a6;" parent="WIyWlLk6GJQsqaUBKTNV-1" vertex="1">
          <mxGeometry x="300.28000000000003" y="470" width="111" height="80" as="geometry" />
        </mxCell>
        <mxCell id="-pUi8ZdjraSUFQL0CSkK-4" style="edgeStyle=orthogonalEdgeStyle;rounded=0;orthogonalLoop=1;jettySize=auto;html=1;exitX=0.5;exitY=1;exitDx=0;exitDy=0;entryX=0.5;entryY=0;entryDx=0;entryDy=0;" edge="1" parent="WIyWlLk6GJQsqaUBKTNV-1" source="_6LwRVh_wQ2znvyvovlK-34" target="_6LwRVh_wQ2znvyvovlK-39">
          <mxGeometry relative="1" as="geometry" />
        </mxCell>
        <mxCell id="_6LwRVh_wQ2znvyvovlK-34" value="Load image tile&amp;nbsp;" style="rounded=1;whiteSpace=wrap;html=1;absoluteArcSize=1;arcSize=14;strokeWidth=2;fillColor=#eeeeee;strokeColor=#36393d;" parent="WIyWlLk6GJQsqaUBKTNV-1" vertex="1">
          <mxGeometry x="498" y="140" width="100" height="65" as="geometry" />
        </mxCell>
        <mxCell id="_6LwRVh_wQ2znvyvovlK-48" value="apply" style="edgeStyle=orthogonalEdgeStyle;rounded=0;orthogonalLoop=1;jettySize=auto;html=1;" parent="WIyWlLk6GJQsqaUBKTNV-1" source="_6LwRVh_wQ2znvyvovlK-19" target="_6LwRVh_wQ2znvyvovlK-32" edge="1">
          <mxGeometry relative="1" as="geometry" />
        </mxCell>
        <mxCell id="_6LwRVh_wQ2znvyvovlK-19" value="Choose filtering conditions" style="strokeWidth=2;html=1;shape=mxgraph.flowchart.decision;whiteSpace=wrap;fillColor=#fff2cc;strokeColor=#d6b656;" parent="WIyWlLk6GJQsqaUBKTNV-1" vertex="1">
          <mxGeometry x="300.00000000000006" y="336.88" width="110" height="83.75" as="geometry" />
        </mxCell>
        <mxCell id="_6LwRVh_wQ2znvyvovlK-79" style="edgeStyle=orthogonalEdgeStyle;rounded=0;orthogonalLoop=1;jettySize=auto;html=1;exitX=0.5;exitY=1;exitDx=0;exitDy=0;entryX=0.5;entryY=0;entryDx=0;entryDy=0;entryPerimeter=0;" parent="WIyWlLk6GJQsqaUBKTNV-1" source="_6LwRVh_wQ2znvyvovlK-39" target="_6LwRVh_wQ2znvyvovlK-77" edge="1">
          <mxGeometry relative="1" as="geometry" />
        </mxCell>
        <mxCell id="_6LwRVh_wQ2znvyvovlK-39" value="Extract building images from tile" style="rounded=1;whiteSpace=wrap;html=1;absoluteArcSize=1;arcSize=14;strokeWidth=2;fillColor=#eeeeee;strokeColor=#36393d;" parent="WIyWlLk6GJQsqaUBKTNV-1" vertex="1">
          <mxGeometry x="498" y="228.75" width="100" height="65" as="geometry" />
        </mxCell>
        <mxCell id="_6LwRVh_wQ2znvyvovlK-47" value="" style="edgeStyle=orthogonalEdgeStyle;rounded=0;orthogonalLoop=1;jettySize=auto;html=1;entryX=0.757;entryY=0;entryDx=0;entryDy=0;entryPerimeter=0;" parent="WIyWlLk6GJQsqaUBKTNV-1" source="_6LwRVh_wQ2znvyvovlK-44" target="_6LwRVh_wQ2znvyvovlK-46" edge="1">
          <mxGeometry relative="1" as="geometry" />
        </mxCell>
        <mxCell id="_6LwRVh_wQ2znvyvovlK-83" value="repeat for&lt;br&gt;all tiles" style="edgeStyle=orthogonalEdgeStyle;rounded=0;orthogonalLoop=1;jettySize=auto;html=1;exitX=0;exitY=0.5;exitDx=0;exitDy=0;entryX=0;entryY=0.75;entryDx=0;entryDy=0;" parent="WIyWlLk6GJQsqaUBKTNV-1" source="_6LwRVh_wQ2znvyvovlK-44" target="_6LwRVh_wQ2znvyvovlK-34" edge="1">
          <mxGeometry relative="1" as="geometry">
            <Array as="points">
              <mxPoint x="470" y="463" />
              <mxPoint x="470" y="189" />
            </Array>
          </mxGeometry>
        </mxCell>
        <mxCell id="_6LwRVh_wQ2znvyvovlK-44" value="Prepare selected images" style="rounded=1;whiteSpace=wrap;html=1;absoluteArcSize=1;arcSize=14;strokeWidth=2;fillColor=#eeeeee;strokeColor=#36393d;" parent="WIyWlLk6GJQsqaUBKTNV-1" vertex="1">
          <mxGeometry x="498" y="450" width="100" height="65" as="geometry" />
        </mxCell>
        <mxCell id="_6LwRVh_wQ2znvyvovlK-75" style="edgeStyle=orthogonalEdgeStyle;rounded=0;orthogonalLoop=1;jettySize=auto;html=1;exitX=0.5;exitY=1;exitDx=0;exitDy=0;exitPerimeter=0;entryX=0;entryY=0.5;entryDx=0;entryDy=0;" parent="WIyWlLk6GJQsqaUBKTNV-1" source="_6LwRVh_wQ2znvyvovlK-46" target="_6LwRVh_wQ2znvyvovlK-74" edge="1">
          <mxGeometry relative="1" as="geometry" />
        </mxCell>
        <mxCell id="_6LwRVh_wQ2znvyvovlK-46" value="Building&lt;br&gt;images&lt;br&gt;(PNG)" style="strokeWidth=2;html=1;shape=mxgraph.flowchart.stored_data;whiteSpace=wrap;fillColor=#cdeb8b;strokeColor=#36393d;" parent="WIyWlLk6GJQsqaUBKTNV-1" vertex="1">
          <mxGeometry x="460" y="585" width="76" height="60" as="geometry" />
        </mxCell>
        <mxCell id="_6LwRVh_wQ2znvyvovlK-51" style="edgeStyle=orthogonalEdgeStyle;rounded=0;orthogonalLoop=1;jettySize=auto;html=1;exitX=0.5;exitY=1;exitDx=0;exitDy=0;exitPerimeter=0;entryX=0.75;entryY=0;entryDx=0;entryDy=0;" parent="WIyWlLk6GJQsqaUBKTNV-1" source="_6LwRVh_wQ2znvyvovlK-49" target="_6LwRVh_wQ2znvyvovlK-15" edge="1">
          <mxGeometry relative="1" as="geometry">
            <Array as="points">
              <mxPoint x="414" y="120" />
              <mxPoint x="381" y="120" />
            </Array>
          </mxGeometry>
        </mxCell>
        <mxCell id="_6LwRVh_wQ2znvyvovlK-49" value="&lt;font style=&quot;font-size: 11px;&quot;&gt;&lt;br&gt;Practice partner&#39;s building information&lt;br&gt;(JSON)&lt;/font&gt;" style="strokeWidth=2;html=1;shape=mxgraph.flowchart.database;whiteSpace=wrap;fillColor=#b1ddf0;strokeColor=#10739e;" parent="WIyWlLk6GJQsqaUBKTNV-1" vertex="1">
          <mxGeometry x="364" y="20" width="100" height="90" as="geometry" />
        </mxCell>
        <mxCell id="_6LwRVh_wQ2znvyvovlK-56" style="edgeStyle=orthogonalEdgeStyle;rounded=0;orthogonalLoop=1;jettySize=auto;html=1;exitX=0.93;exitY=0.5;exitDx=0;exitDy=0;exitPerimeter=0;entryX=0;entryY=0.5;entryDx=0;entryDy=0;" parent="WIyWlLk6GJQsqaUBKTNV-1" source="_6LwRVh_wQ2znvyvovlK-52" target="_6LwRVh_wQ2znvyvovlK-55" edge="1">
          <mxGeometry relative="1" as="geometry">
            <Array as="points">
              <mxPoint x="630" y="615" />
              <mxPoint x="630" y="173" />
            </Array>
          </mxGeometry>
        </mxCell>
        <mxCell id="_6LwRVh_wQ2znvyvovlK-52" value="Building&lt;br&gt;information&lt;br&gt;(JSON)" style="strokeWidth=2;html=1;shape=mxgraph.flowchart.stored_data;whiteSpace=wrap;fillColor=#cdeb8b;strokeColor=#36393d;" parent="WIyWlLk6GJQsqaUBKTNV-1" vertex="1">
          <mxGeometry x="540" y="585" width="80" height="60" as="geometry" />
        </mxCell>
        <mxCell id="_6LwRVh_wQ2znvyvovlK-54" value="save to local storage" style="edgeStyle=orthogonalEdgeStyle;rounded=0;orthogonalLoop=1;jettySize=auto;html=1;exitX=0.5;exitY=1;exitDx=0;exitDy=0;entryX=0.469;entryY=0.013;entryDx=0;entryDy=0;entryPerimeter=0;" parent="WIyWlLk6GJQsqaUBKTNV-1" source="_6LwRVh_wQ2znvyvovlK-44" target="_6LwRVh_wQ2znvyvovlK-52" edge="1">
          <mxGeometry x="-0.6241" y="2" relative="1" as="geometry">
            <mxPoint x="558" y="496" as="sourcePoint" />
            <mxPoint x="600" y="580" as="targetPoint" />
            <mxPoint as="offset" />
          </mxGeometry>
        </mxCell>
        <mxCell id="_6LwRVh_wQ2znvyvovlK-60" value="" style="edgeStyle=orthogonalEdgeStyle;rounded=0;orthogonalLoop=1;jettySize=auto;html=1;" parent="WIyWlLk6GJQsqaUBKTNV-1" source="_6LwRVh_wQ2znvyvovlK-55" target="_6LwRVh_wQ2znvyvovlK-59" edge="1">
          <mxGeometry relative="1" as="geometry" />
        </mxCell>
        <mxCell id="_6LwRVh_wQ2znvyvovlK-55" value="Load pointcloud tile&amp;nbsp;" style="rounded=1;whiteSpace=wrap;html=1;absoluteArcSize=1;arcSize=14;strokeWidth=2;fillColor=#eeeeee;strokeColor=#36393d;" parent="WIyWlLk6GJQsqaUBKTNV-1" vertex="1">
          <mxGeometry x="650" y="140" width="100" height="65" as="geometry" />
        </mxCell>
        <mxCell id="_6LwRVh_wQ2znvyvovlK-80" style="edgeStyle=orthogonalEdgeStyle;rounded=0;orthogonalLoop=1;jettySize=auto;html=1;exitX=0.5;exitY=1;exitDx=0;exitDy=0;" parent="WIyWlLk6GJQsqaUBKTNV-1" source="_6LwRVh_wQ2znvyvovlK-59" target="_6LwRVh_wQ2znvyvovlK-78" edge="1">
          <mxGeometry relative="1" as="geometry" />
        </mxCell>
        <mxCell id="_6LwRVh_wQ2znvyvovlK-59" value="Extract building pointclouds from tile" style="rounded=1;whiteSpace=wrap;html=1;absoluteArcSize=1;arcSize=14;strokeWidth=2;fillColor=#eeeeee;strokeColor=#36393d;" parent="WIyWlLk6GJQsqaUBKTNV-1" vertex="1">
          <mxGeometry x="650" y="228.75" width="100" height="65" as="geometry" />
        </mxCell>
        <mxCell id="_6LwRVh_wQ2znvyvovlK-65" value="save to local storage" style="edgeStyle=orthogonalEdgeStyle;rounded=0;orthogonalLoop=1;jettySize=auto;html=1;exitX=0.5;exitY=1;exitDx=0;exitDy=0;entryX=0.5;entryY=0;entryDx=0;entryDy=0;entryPerimeter=0;" parent="WIyWlLk6GJQsqaUBKTNV-1" source="_6LwRVh_wQ2znvyvovlK-61" target="_6LwRVh_wQ2znvyvovlK-64" edge="1">
          <mxGeometry x="-0.554" relative="1" as="geometry">
            <mxPoint as="offset" />
          </mxGeometry>
        </mxCell>
        <mxCell id="_6LwRVh_wQ2znvyvovlK-84" value="repeat for&lt;br&gt;all tiles" style="edgeStyle=orthogonalEdgeStyle;rounded=0;orthogonalLoop=1;jettySize=auto;html=1;exitX=1;exitY=0.5;exitDx=0;exitDy=0;entryX=1;entryY=0.75;entryDx=0;entryDy=0;" parent="WIyWlLk6GJQsqaUBKTNV-1" source="_6LwRVh_wQ2znvyvovlK-61" target="_6LwRVh_wQ2znvyvovlK-55" edge="1">
          <mxGeometry relative="1" as="geometry" />
        </mxCell>
        <mxCell id="_6LwRVh_wQ2znvyvovlK-61" value="Prepare selected pointclouds" style="rounded=1;whiteSpace=wrap;html=1;absoluteArcSize=1;arcSize=14;strokeWidth=2;fillColor=#eeeeee;strokeColor=#36393d;" parent="WIyWlLk6GJQsqaUBKTNV-1" vertex="1">
          <mxGeometry x="650" y="450" width="100" height="65" as="geometry" />
        </mxCell>
        <mxCell id="_6LwRVh_wQ2znvyvovlK-76" style="edgeStyle=orthogonalEdgeStyle;rounded=0;orthogonalLoop=1;jettySize=auto;html=1;exitX=0.5;exitY=1;exitDx=0;exitDy=0;exitPerimeter=0;entryX=1;entryY=0.5;entryDx=0;entryDy=0;" parent="WIyWlLk6GJQsqaUBKTNV-1" source="_6LwRVh_wQ2znvyvovlK-64" target="_6LwRVh_wQ2znvyvovlK-74" edge="1">
          <mxGeometry relative="1" as="geometry" />
        </mxCell>
        <mxCell id="_6LwRVh_wQ2znvyvovlK-64" value="Building&lt;br&gt;pointclouds&lt;br&gt;(JSON)" style="strokeWidth=2;html=1;shape=mxgraph.flowchart.stored_data;whiteSpace=wrap;fillColor=#cdeb8b;strokeColor=#36393d;" parent="WIyWlLk6GJQsqaUBKTNV-1" vertex="1">
          <mxGeometry x="662" y="585" width="76" height="60" as="geometry" />
        </mxCell>
        <mxCell id="_6LwRVh_wQ2znvyvovlK-67" value="Input data" style="rounded=1;whiteSpace=wrap;html=1;absoluteArcSize=1;arcSize=14;strokeWidth=2;fillColor=none;strokeColor=none;" parent="WIyWlLk6GJQsqaUBKTNV-1" vertex="1">
          <mxGeometry x="20" y="15" width="80" height="100" as="geometry" />
        </mxCell>
        <mxCell id="_6LwRVh_wQ2znvyvovlK-74" value="used for training and evaluating ML model" style="rounded=1;whiteSpace=wrap;html=1;absoluteArcSize=1;arcSize=14;strokeWidth=2;fillColor=none;strokeColor=none;" parent="WIyWlLk6GJQsqaUBKTNV-1" vertex="1">
          <mxGeometry x="540" y="665" width="130" height="30" as="geometry" />
        </mxCell>
        <mxCell id="_6LwRVh_wQ2znvyvovlK-81" style="edgeStyle=orthogonalEdgeStyle;rounded=0;orthogonalLoop=1;jettySize=auto;html=1;exitX=0.5;exitY=1;exitDx=0;exitDy=0;exitPerimeter=0;entryX=0.5;entryY=0;entryDx=0;entryDy=0;" parent="WIyWlLk6GJQsqaUBKTNV-1" source="_6LwRVh_wQ2znvyvovlK-77" target="_6LwRVh_wQ2znvyvovlK-44" edge="1">
          <mxGeometry relative="1" as="geometry" />
        </mxCell>
        <mxCell id="_6LwRVh_wQ2znvyvovlK-77" value="Choose cleaning and processing conditions" style="strokeWidth=2;html=1;shape=mxgraph.flowchart.decision;whiteSpace=wrap;fillColor=#fff2cc;strokeColor=#d6b656;" parent="WIyWlLk6GJQsqaUBKTNV-1" vertex="1">
          <mxGeometry x="491.5" y="316.88" width="113" height="103.75" as="geometry" />
        </mxCell>
        <mxCell id="_6LwRVh_wQ2znvyvovlK-82" style="edgeStyle=orthogonalEdgeStyle;rounded=0;orthogonalLoop=1;jettySize=auto;html=1;exitX=0.5;exitY=1;exitDx=0;exitDy=0;exitPerimeter=0;entryX=0.5;entryY=0;entryDx=0;entryDy=0;" parent="WIyWlLk6GJQsqaUBKTNV-1" source="_6LwRVh_wQ2znvyvovlK-78" target="_6LwRVh_wQ2znvyvovlK-61" edge="1">
          <mxGeometry relative="1" as="geometry" />
        </mxCell>
        <mxCell id="_6LwRVh_wQ2znvyvovlK-78" value="Choose cleaning and processing conditions" style="strokeWidth=2;html=1;shape=mxgraph.flowchart.decision;whiteSpace=wrap;fillColor=#fff2cc;strokeColor=#d6b656;" parent="WIyWlLk6GJQsqaUBKTNV-1" vertex="1">
          <mxGeometry x="645" y="316.88" width="110" height="103.75" as="geometry" />
        </mxCell>
      </root>
    </mxGraphModel>
  </diagram>
</mxfile>
